<svg width="40" height="40" viewBox="0 0 40 40" fill="none" xmlns="http://www.w3.org/2000/svg">
  <rect width="40" height="40" rx="20" fill="#1877f2"/>
  <path d="M20 12C16.6863 12 14 14.6863 14 18C14 21.3137 16.6863 24 20 24C23.3137 24 26 21.3137 26 18C26 14.6863 23.3137 12 20 12Z" fill="white" fill-opacity="0.8"/>
  <path d="M20 26C15.5817 26 12 29.5817 12 34V36C12 36.5523 12.4477 37 13 37H27C27.5523 37 28 36.5523 28 36V34C28 29.5817 24.4183 26 20 26Z" fill="white" fill-opacity="0.8"/>
</svg> 